PathFileType	4	(X/Y/Z)	OpenSim_Sub06_CSStiffKnee_Accel.trc
DataRate	CameraRate	NumFrames	NumMarkers	Units	OrigDataRate	OrigDataStartFrame	OrigNumFrames
100	100	31	8	m	100	5374	7164
Frame#	Time	torso_imu_offset_imu	pelvis_imu_offset_imu	tibia_r_imu_offset_imu	femur_r_imu_offset_imu	tibia_l_imu_offset_imu	femur_l_imu_offset_imu	toes_r_imu_offset_imu	toes_l_imu_offset_imu
				X1	Y1	Z1	X2	Y2	Z2	X3	Y3	Z3	X4	Y4	Z4	X5	Y5	Z5	X6	Y6	Z6	X7	Y7	Z7	X8		Y8	Z8	

5374	53.73000000	8.52960105	1.99212990	4.70298592	7.13368777	-2.40221303	5.86130532	4.01870421	4.69025538	1.96271280	8.58797389	-0.72027302	2.18522234	9.95458146	-0.80513017	1.21109573	8.48769435	1.63072722	-3.09802827	-1.04411727	-5.90149670	11.31165539	4.81187970	1.10458539	11.32967164
5375	53.74000000	8.56813127	1.83436202	4.74801452	7.35888535	-2.05649675	5.76523192	4.39461637	3.07381706	2.46756608	8.38260430	-0.88239288	2.18699529	10.17621750	0.29297516	1.35958394	8.75493454	0.97200144	-3.27331976	0.28062813	-4.95401075	11.19389731	4.84378925	0.98917766	11.28867982
5376	53.75000000	8.46588946	1.75028934	4.81804917	7.46142878	-1.70494077	5.78036603	4.98156451	1.68842444	2.87863875	8.35390539	-0.95891034	2.00345503	10.26965795	0.43243826	1.48393227	10.09593085	0.23407441	-3.90306815	1.42889552	-3.80044130	11.21910509	4.95883870	0.75938792	11.22805730
5377	53.76000000	8.29109600	1.71881379	4.85737636	7.61278823	-1.55122063	5.75744158	6.08223731	0.78486878	2.99911322	8.27384041	-1.02436809	1.85178885	10.15478206	0.21850748	1.53249975	9.88401553	-0.08262410	-3.52857626	2.72219266	-2.94655688	11.38610752	4.42219116	1.03747834	11.54954214
5378	53.77000000	8.16880028	1.78883076	4.84322706	7.43842704	-1.64287828	5.69357710	7.63794947	0.42329280	2.88369639	8.16935909	-1.12893820	1.87739677	9.87447501	-0.02349684	1.52861853	9.58990445	-0.01044443	-3.02234530	4.04342286	-2.73475038	11.53163473	4.76517746	1.06286766	11.36339802
5379	53.78000000	8.23112556	1.84759910	4.78285226	7.15383613	-1.80809027	5.52934013	9.04663380	0.51670512	2.79599337	8.00317885	-1.23985890	2.09203661	9.70345672	-0.11383958	1.46604348	9.46165125	0.19936368	-2.95106656	4.65499433	-3.01737877	11.34456693	5.04975228	0.69989983	11.15708183
5380	53.79000000	8.32714034	1.93170412	4.79693661	7.01501254	-2.01415399	5.36263127	9.86274110	0.94888517	3.05750372	7.84906939	-1.32024870	2.45106999	9.68945433	-0.37232351	1.38400753	8.77312412	0.32846990	-2.61315597	5.19525759	-3.32429191	11.18821237	5.08284747	0.77030489	11.16886085
5381	53.80000000	8.45130808	2.07621828	4.79638472	6.94829382	-2.25300060	5.28123751	10.00501449	1.51075998	3.41472246	7.71990797	-1.43179933	2.72064225	9.56525960	-0.81072447	1.21467456	8.40240846	0.54386427	-2.56964808	6.04970262	-3.73684747	11.02944939	5.17836452	0.59935418	11.10299445
5382	53.81000000	8.49780032	2.21657208	4.80253670	7.14254893	-2.31258311	5.17688750	9.79433990	2.07572283	3.71460108	7.74370552	-1.47752849	2.91875347	9.34139332	-1.21725613	1.03620183	8.38717283	0.82599686	-2.50997912	6.85896965	-4.37497709	10.78388031	4.97881488	1.03855164	11.11565857
5383	53.82000000	8.48216907	2.31870811	4.87869669	7.40629266	-2.33878476	5.17233391	9.45736350	2.62967820	4.09774219	7.93065515	-1.43005964	3.03102512	9.02933086	-1.40417098	0.77842797	8.52718873	1.23236277	-2.58335224	7.79141623	-5.12942391	10.42961888	5.35669425	0.99475166	10.85706082
5384	53.83000000	8.69019968	2.36767620	4.93567359	7.61240573	-2.38177788	5.12473553	9.25146758	3.10606024	4.56424958	8.24156600	-1.37896236	2.94283429	9.13527965	-1.47655554	0.56041216	8.78180642	1.58285567	-2.55595563	8.78459500	-5.42708204	9.96183664	5.60993273	0.94954478	10.74111269
5385	53.84000000	8.86739933	2.35042983	5.06371269	7.87832568	-2.22402981	5.05394825	9.15942567	3.48165616	4.80829639	8.39462242	-1.35146534	2.89778190	9.36970992	-1.95101362	0.51512400	8.73446349	1.95140393	-2.41935171	9.58558878	-5.14558491	9.44356157	5.69742246	0.93975595	10.70983809
5386	53.85000000	8.88338458	2.19716295	5.10465490	8.03631240	-2.20273060	4.91077255	8.96964758	3.74211772	4.66077671	8.56085654	-1.56531888	3.06344441	9.43696957	-2.46551361	0.79855065	8.86832364	1.99340770	-2.28526610	10.19838536	-4.99163675	8.57458662	5.13429412	0.93972746	10.98020612
5387	53.86000000	8.97389360	2.09854289	5.11646666	8.20096519	-2.15873596	4.71528845	8.71419967	3.87242193	4.46535842	8.93494361	-2.00042388	3.35825915	9.28893631	-2.75567812	1.16138211	9.00252416	1.78183958	-2.11273997	10.84085023	-5.22315018	7.65202293	5.15292439	0.89266755	11.08228483
5388	53.87000000	9.15337551	2.04467084	5.11406887	8.31106419	-2.08452984	4.59631148	8.67088071	4.04928875	4.44180399	9.21779509	-2.33973014	3.60415117	9.28542752	-2.60694496	1.60080153	9.41614472	1.22222303	-1.98949917	11.84812318	-5.55162366	6.86364700	5.36379956	0.52367959	11.03405034
5389	53.88000000	9.32090993	2.02923025	5.07747399	8.19004922	-2.21020722	4.49970393	8.84847585	4.01857269	4.21415657	9.17914969	-2.66450153	3.85735856	9.55303267	-2.22853582	1.85783502	9.58365733	0.93004494	-2.01170913	12.91019147	-5.44671858	6.27748623	5.25259197	0.21746608	11.10486398
5390	53.89000000	9.35277083	2.03666123	5.10352401	7.99527433	-2.37372744	4.40437131	9.10366075	3.35988488	3.58633429	8.88109567	-3.16551311	3.99021381	9.80709963	-1.89377837	1.97943911	9.37906413	0.69495459	-2.26234098	13.42754687	-4.41588489	5.86719032	5.44483271	0.12227034	11.05587541
5391	53.90000000	9.42640865	2.09873673	5.09208001	7.90988852	-2.62261290	4.35232621	9.72824061	2.76753744	1.82962141	8.54145251	-3.59090664	3.67668717	10.03822830	-1.30396406	2.01007475	9.63234094	0.55115066	-2.60418495	12.94616533	0.01166104	6.59911087	4.81317762	0.33013734	11.28715379
5392	53.91000000	9.60127398	2.22916045	5.17114392	7.86212169	-3.03060307	4.40520797	10.63699227	2.91224101	0.08878960	8.16451226	-4.01231494	3.30895173	10.20518626	-0.70739993	1.72483061	9.66203684	0.81725706	-2.95783658	13.54296034	3.80558209	7.34576380	5.02424649	0.41249562	11.22118700
5393	53.92000000	9.60666967	2.30577438	5.10687798	7.75712233	-3.08370165	4.32719295	10.86423719	2.24575216	1.73703264	7.73631000	-4.57258873	3.35196076	10.38214339	-0.02354495	1.49308502	9.46463594	1.43252475	-3.02445432	16.19407804	1.67357953	4.73692991	5.26546649	0.53116159	11.15741513
5394	53.93000000	9.67365375	2.38452725	4.96870301	7.77881060	-2.95367334	4.34774326	10.20919093	2.71141135	4.91470641	7.21596933	-5.55657282	3.18824057	10.51168495	0.33631319	1.26247508	9.14584125	1.79271300	-3.15596751	17.23010111	5.01345231	3.30601453	5.14506489	0.76462158	11.24485531
5395	53.94000000	9.69561176	2.35512935	4.85926650	7.77881286	-2.78682853	4.33097822	8.73429466	4.00763908	3.47555245	6.91731023	-6.71308841	2.93752314	10.61778014	0.30613741	1.10870483	8.96932099	2.05975129	-2.96570472	17.56916512	8.89975262	2.04893355	4.88442683	0.94742335	11.40866324
5396	53.95000000	9.62384453	2.31163601	4.87485309	7.80236647	-2.50732122	4.32642032	6.88955211	4.35801004	2.17100461	7.26931046	-6.92923814	3.20166510	10.86649816	0.32572916	1.06613686	9.03744095	2.13469145	-2.73678168	16.98955379	10.90303177	0.05169888	4.65272770	1.19694179	11.56854204
5397	53.96000000	9.59324022	2.21982013	5.00235945	7.82943053	-2.40389087	4.17827221	6.02837352	2.84763596	2.82331225	8.01652248	-5.89067157	3.60017936	10.91378271	0.65799079	1.24302706	8.90742705	2.34815367	-2.54696633	16.09679487	10.43084352	-2.03286078	5.04790744	1.02153282	11.41779533
5398	53.97000000	9.56725831	2.23744979	5.04791660	7.90060824	-2.50019525	4.01222182	6.65331100	1.35410427	2.94805991	8.30769213	-4.68621313	3.94756368	10.89847873	1.11864334	1.51328878	9.22025135	2.33040678	-2.36744314	15.73085339	9.13020455	-3.00011683	5.02662783	0.80501433	11.46292509
5399	53.98000000	9.74511946	2.35546186	5.23887100	8.05619951	-2.50729814	3.74322192	8.05935627	1.03957205	2.24463886	8.39738007	-3.62665331	3.96497313	10.90210037	1.58040322	1.84412255	9.11831868	2.67131219	-2.60341151	15.18822369	7.03298381	-3.09747360	4.97614282	0.62252387	11.61807895
5400	53.99000000	9.76851001	2.42212226	5.29737671	8.29275582	-2.54449604	3.46524215	8.56521358	1.53674184	1.71615807	8.44368324	-2.62962517	3.44898388	10.78246867	2.06248448	2.21825422	9.00434128	3.00031542	-2.64541585	14.89862667	7.24326821	-1.87384477	4.57550250	0.60029757	11.81829550
5401	54	9.47018005	2.41250918	5.24502195	8.44110998	-2.70737165	3.27733382	8.07031310	2.15774743	1.89271744	8.36349546	-1.86672865	2.72654933	10.42545840	2.32681285	2.58867602	8.97317862	3.13880478	-2.61694775	12.36524115	-2.71511485	-4.41821522	4.64438194	0.80590930	11.90889831
5402	54.01000000	9.22614938	2.37896059	5.17892590	8.51092226	-2.58391230	3.23640343	7.71264442	2.41192828	2.12501464	8.17335049	-1.28728298	2.09249488	10.21901073	2.67605839	2.87986276	8.99746529	3.43098807	-2.50285950	13.34643804	-9.98930946	-9.53870446	5.20971449	0.48913235	11.67604227
5403	54.02000000	9.33594161	2.38946494	5.23841117	8.39564229	-2.48487165	3.37997007	7.88298860	2.15483673	2.78572568	7.91343723	-1.06203495	1.67258794	10.27215651	3.00357359	3.00352274	8.86030614	3.75670217	-2.32115446	9.77042697	16.67750115	-2.28064080	5.35255411	0.33720993	11.81081198
5404	54.03000000	9.44182380	2.39388055	5.28856958	8.32820664	-2.23337912	3.88532079	7.93288077	1.80297229	4.99539357	7.51536018	-1.09923914	1.91311868	10.61008915	3.13042619	3.40434304	8.70092074	3.92702936	-2.09997678	32.84202427	9.11732670	22.41294874	5.10793130	0.27607482	12.07922719
